<svg width="400" height="400" viewBox="0 0 400 400" fill="none"
  xmlns="http://www.w3.org/2000/svg">
  <path fill-rule="evenodd" clip-rule="evenodd" d="M206.837 289.817C206.833 289.817 206.833 289.813 206.829 289.813C206.215 289.543 204.626 289.264 203.741 289.125C203.729 289.125 203.716 289.116 203.699 289.112C188.36 286.954 176.489 272.357 176.489 254.661C176.489 253.512 176.54 247.731 176.637 240.312V184.145C176.637 164.928 161.005 149.347 141.723 149.347C122.534 149.347 106.962 164.772 106.814 183.862C106.81 183.866 106.81 183.874 106.814 183.883C106.81 183.929 106.81 183.967 106.81 184.014V184.145V262.025H106.814C107.089 281.309 122.445 296.962 141.651 297.781V297.81H204.995C207.328 297.81 209.217 295.927 209.217 293.6C209.221 291.933 208.247 290.497 206.837 289.817Z" fill="white"/>
  <path fill-rule="evenodd" clip-rule="evenodd" d="M193.819 110.183C193.823 110.183 193.823 110.187 193.827 110.187C194.441 110.457 196.029 110.736 196.914 110.875C196.927 110.875 196.94 110.884 196.957 110.888C212.296 113.046 224.167 127.643 224.167 145.34C224.167 146.488 224.116 152.269 224.019 159.688V215.851C224.019 235.068 239.65 250.649 258.932 250.649C278.121 250.649 293.694 235.224 293.842 216.134C293.846 216.13 293.846 216.121 293.842 216.113C293.846 216.067 293.846 216.029 293.846 215.982V215.851V137.976H293.842C293.567 118.691 278.21 103.038 259.004 102.219V102.19H195.661C193.327 102.19 191.438 104.073 191.438 106.4C191.434 108.067 192.408 109.503 193.819 110.183Z" fill="white"/>
</svg>
